<mxfile host="app.diagrams.net" modified="2021-11-26T05:25:46.870Z" agent="5.0 (Macintosh; Intel Mac OS X 10_15_7) AppleWebKit/537.36 (KHTML, like Gecko) Chrome/95.0.4638.69 Safari/537.36" etag="Rt4245t2jMmFhm821DVT" version="15.8.6" type="github">
  <diagram id="BA5yDocTeBRMfmRX3xrZ" name="Page-1">
    <mxGraphModel dx="946" dy="1815" grid="1" gridSize="10" guides="1" tooltips="1" connect="1" arrows="1" fold="1" page="1" pageScale="1" pageWidth="827" pageHeight="1169" math="0" shadow="0">
      <root>
        <mxCell id="0" />
        <mxCell id="1" parent="0" />
        <mxCell id="0VbEOamPu5hYWnjHaYcF-12" value="" style="edgeStyle=orthogonalEdgeStyle;rounded=0;orthogonalLoop=1;jettySize=auto;html=1;fontSize=20;" edge="1" parent="1" source="0VbEOamPu5hYWnjHaYcF-5" target="0VbEOamPu5hYWnjHaYcF-11">
          <mxGeometry relative="1" as="geometry" />
        </mxCell>
        <mxCell id="0VbEOamPu5hYWnjHaYcF-5" value="..." style="rounded=0;whiteSpace=wrap;html=1;fontSize=20;gradientColor=none;align=center;verticalAlign=middle;fontStyle=1" vertex="1" parent="1">
          <mxGeometry x="200" y="290" width="120" height="110" as="geometry" />
        </mxCell>
        <mxCell id="0VbEOamPu5hYWnjHaYcF-16" value="" style="edgeStyle=none;rounded=0;orthogonalLoop=1;jettySize=auto;html=1;fontSize=20;endArrow=classic;endFill=1;strokeColor=default;" edge="1" parent="1" source="0VbEOamPu5hYWnjHaYcF-11" target="0VbEOamPu5hYWnjHaYcF-15">
          <mxGeometry relative="1" as="geometry" />
        </mxCell>
        <mxCell id="0VbEOamPu5hYWnjHaYcF-11" value="LSTM" style="rounded=0;whiteSpace=wrap;html=1;fontSize=20;gradientColor=none;" vertex="1" parent="1">
          <mxGeometry x="200" y="190" width="120" height="60" as="geometry" />
        </mxCell>
        <mxCell id="0VbEOamPu5hYWnjHaYcF-13" style="orthogonalLoop=1;jettySize=auto;html=1;exitX=0.25;exitY=1;exitDx=0;exitDy=0;fontSize=20;strokeColor=default;rounded=0;entryX=0.25;entryY=0;entryDx=0;entryDy=0;endArrow=none;endFill=0;" edge="1" parent="1" source="0VbEOamPu5hYWnjHaYcF-5" target="0VbEOamPu5hYWnjHaYcF-5">
          <mxGeometry relative="1" as="geometry">
            <mxPoint x="230" y="300" as="targetPoint" />
          </mxGeometry>
        </mxCell>
        <mxCell id="0VbEOamPu5hYWnjHaYcF-14" style="edgeStyle=none;rounded=0;orthogonalLoop=1;jettySize=auto;html=1;exitX=0.75;exitY=0;exitDx=0;exitDy=0;entryX=0.75;entryY=1;entryDx=0;entryDy=0;fontSize=20;endArrow=none;endFill=0;strokeColor=default;" edge="1" parent="1" source="0VbEOamPu5hYWnjHaYcF-5" target="0VbEOamPu5hYWnjHaYcF-5">
          <mxGeometry relative="1" as="geometry" />
        </mxCell>
        <mxCell id="0VbEOamPu5hYWnjHaYcF-15" value="" style="whiteSpace=wrap;html=1;rounded=0;fontSize=20;direction=south;" vertex="1" parent="1">
          <mxGeometry x="250" y="30" width="20" height="120" as="geometry" />
        </mxCell>
        <mxCell id="0VbEOamPu5hYWnjHaYcF-19" value="" style="edgeStyle=orthogonalEdgeStyle;rounded=0;orthogonalLoop=1;jettySize=auto;html=1;fontSize=20;" edge="1" parent="1" source="0VbEOamPu5hYWnjHaYcF-20" target="0VbEOamPu5hYWnjHaYcF-22">
          <mxGeometry relative="1" as="geometry" />
        </mxCell>
        <mxCell id="0VbEOamPu5hYWnjHaYcF-20" value="..." style="rounded=0;whiteSpace=wrap;html=1;fontSize=20;gradientColor=none;align=center;verticalAlign=middle;fontStyle=1" vertex="1" parent="1">
          <mxGeometry x="380" y="290" width="120" height="110" as="geometry" />
        </mxCell>
        <mxCell id="0VbEOamPu5hYWnjHaYcF-21" value="" style="edgeStyle=none;rounded=0;orthogonalLoop=1;jettySize=auto;html=1;fontSize=20;endArrow=classic;endFill=1;strokeColor=default;" edge="1" parent="1" source="0VbEOamPu5hYWnjHaYcF-22" target="0VbEOamPu5hYWnjHaYcF-25">
          <mxGeometry relative="1" as="geometry" />
        </mxCell>
        <mxCell id="0VbEOamPu5hYWnjHaYcF-22" value="LSTM" style="rounded=0;whiteSpace=wrap;html=1;fontSize=20;gradientColor=none;" vertex="1" parent="1">
          <mxGeometry x="380" y="190" width="120" height="60" as="geometry" />
        </mxCell>
        <mxCell id="0VbEOamPu5hYWnjHaYcF-23" style="orthogonalLoop=1;jettySize=auto;html=1;exitX=0.25;exitY=1;exitDx=0;exitDy=0;fontSize=20;strokeColor=default;rounded=0;entryX=0.25;entryY=0;entryDx=0;entryDy=0;endArrow=none;endFill=0;" edge="1" parent="1" source="0VbEOamPu5hYWnjHaYcF-20" target="0VbEOamPu5hYWnjHaYcF-20">
          <mxGeometry relative="1" as="geometry">
            <mxPoint x="410" y="300" as="targetPoint" />
          </mxGeometry>
        </mxCell>
        <mxCell id="0VbEOamPu5hYWnjHaYcF-24" style="edgeStyle=none;rounded=0;orthogonalLoop=1;jettySize=auto;html=1;exitX=0.75;exitY=0;exitDx=0;exitDy=0;entryX=0.75;entryY=1;entryDx=0;entryDy=0;fontSize=20;endArrow=none;endFill=0;strokeColor=default;" edge="1" parent="1" source="0VbEOamPu5hYWnjHaYcF-20" target="0VbEOamPu5hYWnjHaYcF-20">
          <mxGeometry relative="1" as="geometry" />
        </mxCell>
        <mxCell id="0VbEOamPu5hYWnjHaYcF-25" value="" style="whiteSpace=wrap;html=1;rounded=0;fontSize=20;direction=south;" vertex="1" parent="1">
          <mxGeometry x="430" y="30" width="20" height="120" as="geometry" />
        </mxCell>
        <mxCell id="0VbEOamPu5hYWnjHaYcF-26" value="" style="edgeStyle=orthogonalEdgeStyle;rounded=0;orthogonalLoop=1;jettySize=auto;html=1;fontSize=20;" edge="1" parent="1" source="0VbEOamPu5hYWnjHaYcF-27" target="0VbEOamPu5hYWnjHaYcF-29">
          <mxGeometry relative="1" as="geometry" />
        </mxCell>
        <mxCell id="0VbEOamPu5hYWnjHaYcF-27" value="..." style="rounded=0;whiteSpace=wrap;html=1;fontSize=20;gradientColor=none;align=center;verticalAlign=middle;fontStyle=1" vertex="1" parent="1">
          <mxGeometry x="560" y="290" width="120" height="110" as="geometry" />
        </mxCell>
        <mxCell id="0VbEOamPu5hYWnjHaYcF-28" value="" style="edgeStyle=none;rounded=0;orthogonalLoop=1;jettySize=auto;html=1;fontSize=20;endArrow=classic;endFill=1;strokeColor=default;" edge="1" parent="1" source="0VbEOamPu5hYWnjHaYcF-29" target="0VbEOamPu5hYWnjHaYcF-32">
          <mxGeometry relative="1" as="geometry" />
        </mxCell>
        <mxCell id="0VbEOamPu5hYWnjHaYcF-29" value="LSTM" style="rounded=0;whiteSpace=wrap;html=1;fontSize=20;gradientColor=none;" vertex="1" parent="1">
          <mxGeometry x="560" y="190" width="120" height="60" as="geometry" />
        </mxCell>
        <mxCell id="0VbEOamPu5hYWnjHaYcF-30" style="orthogonalLoop=1;jettySize=auto;html=1;exitX=0.25;exitY=1;exitDx=0;exitDy=0;fontSize=20;strokeColor=default;rounded=0;entryX=0.25;entryY=0;entryDx=0;entryDy=0;endArrow=none;endFill=0;" edge="1" parent="1" source="0VbEOamPu5hYWnjHaYcF-27" target="0VbEOamPu5hYWnjHaYcF-27">
          <mxGeometry relative="1" as="geometry">
            <mxPoint x="590" y="300" as="targetPoint" />
          </mxGeometry>
        </mxCell>
        <mxCell id="0VbEOamPu5hYWnjHaYcF-31" style="edgeStyle=none;rounded=0;orthogonalLoop=1;jettySize=auto;html=1;exitX=0.75;exitY=0;exitDx=0;exitDy=0;entryX=0.75;entryY=1;entryDx=0;entryDy=0;fontSize=20;endArrow=none;endFill=0;strokeColor=default;" edge="1" parent="1" source="0VbEOamPu5hYWnjHaYcF-27" target="0VbEOamPu5hYWnjHaYcF-27">
          <mxGeometry relative="1" as="geometry" />
        </mxCell>
        <mxCell id="0VbEOamPu5hYWnjHaYcF-32" value="" style="whiteSpace=wrap;html=1;rounded=0;fontSize=20;direction=south;" vertex="1" parent="1">
          <mxGeometry x="610" y="30" width="20" height="120" as="geometry" />
        </mxCell>
        <mxCell id="0VbEOamPu5hYWnjHaYcF-33" value="&lt;b&gt;...&lt;/b&gt;" style="text;html=1;align=center;verticalAlign=middle;resizable=0;points=[];autosize=1;strokeColor=none;fillColor=none;fontSize=20;" vertex="1" parent="1">
          <mxGeometry x="515" y="200" width="30" height="30" as="geometry" />
        </mxCell>
        <mxCell id="0VbEOamPu5hYWnjHaYcF-35" value="&lt;b&gt;...&lt;/b&gt;" style="text;html=1;align=center;verticalAlign=middle;resizable=0;points=[];autosize=1;strokeColor=none;fillColor=none;fontSize=20;" vertex="1" parent="1">
          <mxGeometry x="515" y="75" width="30" height="30" as="geometry" />
        </mxCell>
        <mxCell id="0VbEOamPu5hYWnjHaYcF-41" value="" style="edgeStyle=none;rounded=0;orthogonalLoop=1;jettySize=auto;html=1;fontSize=20;endArrow=classic;endFill=1;strokeColor=default;" edge="1" parent="1" source="0VbEOamPu5hYWnjHaYcF-40" target="0VbEOamPu5hYWnjHaYcF-36">
          <mxGeometry relative="1" as="geometry" />
        </mxCell>
        <mxCell id="0VbEOamPu5hYWnjHaYcF-36" value="TGN" style="shape=trapezoid;perimeter=trapezoidPerimeter;whiteSpace=wrap;html=1;fixedSize=1;fontSize=20;gradientColor=none;" vertex="1" parent="1">
          <mxGeometry x="365" y="-130" width="150" height="90" as="geometry" />
        </mxCell>
        <mxCell id="0VbEOamPu5hYWnjHaYcF-37" value="" style="endArrow=classic;html=1;rounded=0;fontSize=20;strokeColor=default;exitX=0;exitY=0.5;exitDx=0;exitDy=0;entryX=0.413;entryY=1.056;entryDx=0;entryDy=0;entryPerimeter=0;" edge="1" parent="1" source="0VbEOamPu5hYWnjHaYcF-15" target="0VbEOamPu5hYWnjHaYcF-36">
          <mxGeometry width="50" height="50" relative="1" as="geometry">
            <mxPoint x="390" y="120" as="sourcePoint" />
            <mxPoint x="400" y="-30" as="targetPoint" />
          </mxGeometry>
        </mxCell>
        <mxCell id="0VbEOamPu5hYWnjHaYcF-38" value="" style="endArrow=classic;html=1;rounded=0;fontSize=20;strokeColor=default;exitX=0;exitY=0.5;exitDx=0;exitDy=0;entryX=0.5;entryY=1;entryDx=0;entryDy=0;" edge="1" parent="1" source="0VbEOamPu5hYWnjHaYcF-25" target="0VbEOamPu5hYWnjHaYcF-36">
          <mxGeometry width="50" height="50" relative="1" as="geometry">
            <mxPoint x="390" y="120" as="sourcePoint" />
            <mxPoint x="440" y="-20" as="targetPoint" />
          </mxGeometry>
        </mxCell>
        <mxCell id="0VbEOamPu5hYWnjHaYcF-39" value="" style="endArrow=classic;html=1;rounded=0;fontSize=20;strokeColor=default;exitX=0;exitY=0.5;exitDx=0;exitDy=0;entryX=0.567;entryY=1.056;entryDx=0;entryDy=0;entryPerimeter=0;" edge="1" parent="1" source="0VbEOamPu5hYWnjHaYcF-32" target="0VbEOamPu5hYWnjHaYcF-36">
          <mxGeometry width="50" height="50" relative="1" as="geometry">
            <mxPoint x="390" y="120" as="sourcePoint" />
            <mxPoint x="480" y="-30" as="targetPoint" />
          </mxGeometry>
        </mxCell>
        <mxCell id="0VbEOamPu5hYWnjHaYcF-40" value="" style="ellipse;whiteSpace=wrap;html=1;fontSize=20;" vertex="1" parent="1">
          <mxGeometry x="140" y="-140" width="180" height="110" as="geometry" />
        </mxCell>
        <mxCell id="0VbEOamPu5hYWnjHaYcF-45" value="" style="endArrow=oval;html=1;rounded=0;fontSize=20;strokeColor=default;endFill=1;" edge="1" parent="1">
          <mxGeometry width="50" height="50" relative="1" as="geometry">
            <mxPoint x="170" y="-60" as="sourcePoint" />
            <mxPoint x="199" y="-120" as="targetPoint" />
          </mxGeometry>
        </mxCell>
        <mxCell id="0VbEOamPu5hYWnjHaYcF-46" value="" style="endArrow=oval;html=1;rounded=0;fontSize=20;strokeColor=default;endFill=1;" edge="1" parent="1">
          <mxGeometry width="50" height="50" relative="1" as="geometry">
            <mxPoint x="200" y="-120" as="sourcePoint" />
            <mxPoint x="270" y="-130" as="targetPoint" />
          </mxGeometry>
        </mxCell>
        <mxCell id="0VbEOamPu5hYWnjHaYcF-47" value="" style="endArrow=oval;html=1;rounded=0;fontSize=20;strokeColor=default;endFill=1;startArrow=oval;startFill=1;" edge="1" parent="1">
          <mxGeometry width="50" height="50" relative="1" as="geometry">
            <mxPoint x="170" y="-60" as="sourcePoint" />
            <mxPoint x="290" y="-60" as="targetPoint" />
          </mxGeometry>
        </mxCell>
        <mxCell id="0VbEOamPu5hYWnjHaYcF-48" value="" style="endArrow=none;html=1;rounded=0;fontSize=20;strokeColor=default;" edge="1" parent="1">
          <mxGeometry width="50" height="50" relative="1" as="geometry">
            <mxPoint x="270" y="-130" as="sourcePoint" />
            <mxPoint x="290" y="-60" as="targetPoint" />
          </mxGeometry>
        </mxCell>
        <mxCell id="0VbEOamPu5hYWnjHaYcF-49" value="" style="endArrow=none;html=1;rounded=0;fontSize=20;strokeColor=default;" edge="1" parent="1">
          <mxGeometry width="50" height="50" relative="1" as="geometry">
            <mxPoint x="200" y="-120" as="sourcePoint" />
            <mxPoint x="290" y="-60" as="targetPoint" />
          </mxGeometry>
        </mxCell>
        <mxCell id="0VbEOamPu5hYWnjHaYcF-50" value="&lt;font style=&quot;font-size: 3px&quot;&gt;u1&lt;/font&gt;" style="text;html=1;align=center;verticalAlign=middle;resizable=0;points=[];autosize=1;strokeColor=none;fillColor=none;fontSize=20;" vertex="1" parent="1">
          <mxGeometry x="150" y="-90" width="30" height="30" as="geometry" />
        </mxCell>
      </root>
    </mxGraphModel>
  </diagram>
</mxfile>
